<?xml version="1.0" encoding="UTF-8" standalone="no"?>
<svg
   xmlns:dc="http://purl.org/dc/elements/1.1/"
   xmlns:cc="http://creativecommons.org/ns#"
   xmlns:rdf="http://www.w3.org/1999/02/22-rdf-syntax-ns#"
   xmlns:svg="http://www.w3.org/2000/svg"
   xmlns="http://www.w3.org/2000/svg"
   xmlns:xlink="http://www.w3.org/1999/xlink"
   xmlns:sodipodi="http://sodipodi.sourceforge.net/DTD/sodipodi-0.dtd"
   xmlns:inkscape="http://www.inkscape.org/namespaces/inkscape"
   width="1937pt"
   height="2400pt"
   viewBox="0 0 1937 2400"
   version="1.1"
   id="svg3360"
   inkscape:version="0.91 r13725"
   sodipodi:docname="RainbowUnicornRemix.svg">
  <metadata
     id="metadata3394">
    <rdf:RDF>
      <cc:Work
         rdf:about="">
        <dc:format>image/svg+xml</dc:format>
        <dc:type
           rdf:resource="http://purl.org/dc/dcmitype/StillImage" />
        <dc:title />
      </cc:Work>
    </rdf:RDF>
  </metadata>
  <defs
     id="defs3392">
    <linearGradient
       id="linearGradient4196">
      <stop
         style="stop-color:#fe0000;stop-opacity:1;"
         offset="0"
         id="stop4198" />
      <stop
         id="stop4394"
         offset="0.20627558"
         style="stop-color:#ff8500;stop-opacity:1;" />
      <stop
         id="stop4392"
         offset="0.36382109"
         style="stop-color:#fff301;stop-opacity:1;" />
      <stop
         id="stop4388"
         offset="0.39830285"
         style="stop-color:#faf900;stop-opacity:1;" />
      <stop
         id="stop4386"
         offset="0.43371421"
         style="stop-color:#edeb01;stop-opacity:1;" />
      <stop
         id="stop4384"
         offset="0.46388885"
         style="stop-color:#bacf00;stop-opacity:1;" />
      <stop
         style="stop-color:#307500;stop-opacity:1;"
         offset="0.55420512"
         id="stop4390" />
      <stop
         id="stop4382"
         offset="0.79129642"
         style="stop-color:#003cff;stop-opacity:1;" />
      <stop
         style="stop-color:#7d01b1;stop-opacity:1;"
         offset="1"
         id="stop4200" />
    </linearGradient>
    <linearGradient
       inkscape:collect="always"
       xlink:href="#linearGradient4196"
       id="linearGradient4202"
       x1="1424.0586"
       y1="29.193842"
       x2="1397.1442"
       y2="2078.884"
       gradientUnits="userSpaceOnUse"
       gradientTransform="scale(1.25,1.25)" />
  </defs>
  <sodipodi:namedview
     pagecolor="#ffffff"
     bordercolor="#666666"
     borderopacity="1"
     objecttolerance="10"
     gridtolerance="10"
     guidetolerance="10"
     inkscape:pageopacity="0"
     inkscape:pageshadow="2"
     inkscape:window-width="1600"
     inkscape:window-height="837"
     id="namedview3390"
     showgrid="false"
     inkscape:snap-smooth-nodes="false"
     inkscape:object-nodes="false"
     inkscape:zoom="0.22333333"
     inkscape:cx="1210.625"
     inkscape:cy="1500"
     inkscape:window-x="-8"
     inkscape:window-y="-8"
     inkscape:window-maximized="1"
     inkscape:current-layer="svg3360" />
  <path
     style="fill-opacity:1;fill:url(#linearGradient4202);stroke:none"
     d="M 214.03711 0 C 209.18711 3.025 208.00039 11.387109 214.21289 13.412109 C 486.47539 106.57461 759.2875 198.425 1031.3125 292.1875 C 1004.6 316.1875 982.35 344.87461 955 368.03711 C 924.175 373.27461 893.26289 381.0875 866.15039 397.25 C 847.03789 406.3875 853.8875 432.12578 853.3125 449.23828 C 829.3375 460.51328 812.45 491.48789 826.375 516.40039 C 832.3625 534.13789 843.71328 561.08789 866.67578 555.71289 C 894.47578 552.66289 919.97461 539.56328 947.34961 535.17578 C 966.89961 537.96328 991.04961 549.24961 996.16211 569.53711 C 979.48711 594.33711 946.50039 599.58672 924.08789 617.76172 C 914.51289 625.47422 915.53789 641.56172 925.27539 648.63672 C 943.23789 663.49922 968.20039 663.62539 990.21289 661.65039 C 980.48789 683.35039 952.52578 681.03672 933.80078 688.82422 C 902.26328 704.83672 868.775 735.21211 872.4375 773.97461 C 840.8875 791.49961 806.98828 805.42578 776.30078 824.73828 C 718.67578 784.23828 660.7 743.77461 603.75 702.34961 C 594.775 671.52461 553.04922 669.61289 528.63672 682.52539 C 447.96172 695.97539 371.86328 727.69961 292.36328 745.66211 C 258.18828 743.32461 223.03828 750.32422 192.67578 766.32422 C 175.53828 780.08672 152.8125 782.1875 133.875 792.625 C 78.5875 819.0625 39.3875 867.88828 0 913.11328 L 0 914.25 C 28.9375 919.825 58.463281 911.52422 82.363281 894.88672 C 61.575781 917.12422 40.300781 941.32461 29.050781 969.72461 C 99.025781 988.39961 173.8875 978.05078 239.8125 949.86328 C 267.225 931.68828 264.17461 893.83789 282.72461 868.96289 C 289.99961 856.96289 300.06172 835.56211 317.19922 843.53711 C 330.18672 849.66211 332.12578 879.03789 350.73828 868.40039 C 374.25078 810.35039 441.69961 797.43711 491.59961 773.53711 C 509.64961 800.37461 542.925 806.88672 573.0625 807.63672 C 586.9 833.61172 597.15039 861.88828 616.46289 884.73828 C 629.25039 904.91328 630.70039 929.77422 639.58789 951.63672 C 653.78789 984.48672 672.86172 1019.9246 708.69922 1032.7246 C 720.96172 1034.8121 724.67461 1042.8754 712.97461 1050.6504 C 649.36211 1073.0629 585.76172 1096.0004 522.01172 1117.9629 C 495.83672 1107.9504 473.05078 1132.5867 463.17578 1154.4492 C 459.27578 1167.2242 454.27539 1179.5883 447.21289 1190.9883 C 411.63789 1261.1632 387.03672 1336.2125 353.69922 1407.375 C 326.42422 1441.9125 304.21172 1482.6996 299.82422 1527.1621 C 298.04922 1535.1496 293.73828 1542.2871 291.55078 1550.1621 C 265.97578 1619.4121 272.97461 1694.9258 283.09961 1766.4883 C 306.34961 1745.6758 318.72422 1715.5 321.69922 1684.875 C 323.46172 1716.35 329.13672 1747.5129 338.88672 1777.5254 C 398.41172 1732.4879 435.18711 1663.2883 458.41211 1593.3633 C 465.41211 1579.2133 461.22422 1562.6625 453.82422 1549.625 C 440.93672 1522.325 424.3875 1493.8258 427.0625 1462.5508 C 432.0625 1445.5133 452.28789 1452.0258 465.71289 1452.1758 C 475.68789 1448.6633 476.4125 1435.3258 471.5 1427.3008 C 451.05 1370.2758 485.83828 1314.5379 497.36328 1259.5254 C 530.66328 1260.3754 554.84961 1235.2758 574.41211 1211.6758 C 602.73711 1219.6008 632.69922 1231.7375 663.19922 1224.375 C 710.84922 1246.05 771.6 1273.3129 819.9375 1238.9629 C 835.4125 1273.8504 869.375 1293.5492 898.5 1315.3867 C 908.6875 1341.5492 922.02422 1366.7133 941.32422 1387.4258 C 1000.7992 1454.4133 1079.4242 1499.9375 1152.4492 1550.25 C 1179.9617 1572.0125 1201.5758 1600.3254 1219.9258 1629.9629 C 1180.1383 1647.7879 1136.2125 1652.6 1095.0625 1666.3125 C 1077.8125 1671.0125 1062.4867 1681.3629 1044.3867 1683.0879 C 984.83672 1694.8754 937.18711 1747.1 929.72461 1807.25 C 928.27461 1830.3875 922.02578 1852.9117 921.61328 1876.1367 C 924.26328 1952.1992 969.6875 2022.3258 1030.0625 2066.3633 C 1066.6688 2066.2445 1103.2777 2066.2227 1139.8887 2066.2305 C 1103.2777 2066.2227 1066.6688 2066.2445 1030.0625 2066.3633 C 1042.125 2075.7258 1055.5508 2083.2375 1069.7383 2088.875 C 1034.8133 2119.275 1010.0871 2158.8508 979.03711 2192.8008 C 925.18711 2252.3383 850.22539 2285.9254 776.58789 2314.0879 C 734.25039 2334.7629 683.24961 2311.7 641.41211 2336.375 C 624.99961 2349.75 604.41172 2356.2117 587.26172 2368.5117 C 537.71172 2402.5742 504.54961 2454.0504 472.53711 2503.7129 C 470.78711 2506.3379 471.35039 2511.2871 477.27539 2507.9121 C 508.88789 2510.8121 541.30039 2505.0992 569.83789 2491.1367 C 546.46289 2518.3867 524.59922 2548.2992 513.88672 2582.9492 C 539.14922 2582.0117 564.43789 2582.9254 589.71289 2582.3379 C 633.35039 2576.1504 674.8375 2559.4367 713.25 2538.2617 C 738.3625 2528.6992 739.76289 2497.2867 744.96289 2475.0117 C 752.35039 2456.0492 756.21328 2433.5258 772.42578 2419.6758 C 794.46328 2407.1258 802.66211 2455.9258 822.72461 2437.8008 C 873.71211 2377.3133 935.54924 2324.9742 1007.5742 2291.3242 C 1077.5492 2259.7617 1140.7 2215.4621 1206.75 2176.9746 C 1231.1375 2184.7246 1257.2742 2169.0383 1263.6367 2144.8633 C 1272.9367 2118.1258 1263.6371 2089.5254 1249.7246 2066.2754 C 1238.3371 2044.7254 1229.0371 2018.3371 1239.7246 1994.6621 C 1272.0246 1982.5746 1311.0496 1973.7492 1330.2246 1943.0742 C 1335.9746 1988.0867 1356.7246 2032.1254 1387.5996 2066.5254 C 1413.3934 2066.3535 1439.1867 2066.2682 1464.9805 2066.2305 C 1439.1867 2066.2681 1413.3934 2066.3535 1387.5996 2066.5254 C 1402.2621 2089.7254 1416.55 2113.4258 1434.1875 2134.5508 C 1455.575 2158.7758 1487.0504 2168.9379 1516.3379 2179.8379 C 1569.2379 2249.2629 1648.0871 2297.1621 1732.0371 2319.2246 C 1744.1871 2409.1496 1725.1121 2501.0246 1686.5371 2582.5996 C 1712.084 2582.459 1737.6311 2582.4237 1763.1836 2582.5098 C 1737.6314 2582.4236 1712.084 2582.459 1686.5371 2582.5996 C 1678.3621 2598.6371 1671.5004 2615.4633 1662.0254 2630.8008 C 1625.0004 2650.6258 1612.8629 2694.2379 1591.1504 2727.4004 C 1549.3879 2802.1504 1555.3004 2891.5258 1564.9629 2973.6133 C 1594.2004 2953.6633 1615.6367 2922.2992 1629.5117 2889.7617 C 1628.5742 2926.5492 1630.6008 2963.6129 1642.4883 2998.7754 C 1706.3133 2951.4129 1745.9004 2877.9 1769.3379 2803.25 C 1766.4379 2761.3875 1727.2492 2726.4758 1738.3242 2682.6133 C 1748.5617 2666.3758 1774.925 2685.0633 1784 2669.7383 C 1785.5 2640.7383 1784.6633 2611.5367 1788.7383 2582.6367 C 1801.4008 2493.7242 1811.3508 2401.9742 1847.8633 2319.1367 C 1869.3883 2299.3867 1881.0742 2260.7758 1855.2617 2239.6133 C 1813.6992 2212.0758 1767.0246 2189.4629 1734.9746 2150.0254 C 1714.8746 2126.0254 1705.925 2095.5383 1697.125 2066.1758 C 1671.3312 2066.2633 1645.5379 2066.2858 1619.7441 2066.2812 C 1581.0535 2066.2745 1542.3626 2066.2068 1503.6719 2066.2051 C 1542.3625 2066.2068 1581.0535 2066.2745 1619.7441 2066.2812 C 1645.5379 2066.2857 1671.3312 2066.2633 1697.125 2066.1758 C 1705.75 1986.5008 1714.35 1904.7746 1698.6875 1825.0371 C 1748.425 1888.5746 1818.0742 1939.3254 1897.4492 1957.5254 C 1979.5117 1975.8004 2070.6883 1939.0758 2113.3633 1865.9258 C 2127.1383 1853.0633 2147.1875 1843.5875 2166.4375 1846.875 C 2179.4625 1861.375 2195.7371 1876.6254 2216.7871 1876.2129 C 2255.8121 1879.1754 2288.2242 1847.55 2302.5117 1813.75 C 2314.9492 1788.475 2333.2367 1752.6375 2367.5742 1760.5625 C 2366.8867 1741.9375 2360.95 1718.8383 2341 1712.4883 C 2343.275 1709.5133 2346.8375 1708.075 2349.9375 1706.125 C 2334.85 1675.3875 2293.6867 1658.2742 2262.3867 1674.9492 C 2243.1867 1683.5742 2230.9617 1702.4 2226.3867 1722.375 C 2210.9117 1704.825 2185.8879 1715.9992 2176.0879 1733.5117 C 2170.2379 1738.6492 2168.4504 1751.8992 2158.9004 1750.9492 C 2169.0254 1683.8617 2166.4758 1613.9633 2143.8633 1549.5508 C 2115.4133 1455.3258 2049.8996 1371.3629 1962.4746 1325.0254 C 1915.9371 1300.4754 1874.5121 1259.3129 1863.7871 1206.2129 C 1850.1371 1146.1129 1871.1625 1085.9133 1897.25 1032.4258 C 1937.0875 965.05076 1981.9367 894.46211 2052.5742 856.16211 C 2057.2867 863.93711 2060.2 873.88711 2056.5 882.66211 C 2044.0875 929.77461 2074.6254 988.52461 2125.0879 996.16211 C 2146.5129 1000.0371 2166.9125 1012.2492 2175.4375 1032.8867 C 2179.8375 1032.7617 2184.0254 1032.6492 2188.5254 1032.6367 C 2203.6504 1028.7242 2189.25 989.97462 2204.0625 1008.9121 C 2219.775 973.37462 2211.9004 926.44922 2181.9004 900.69922 C 2173.9629 893.39922 2163.3758 892.0375 2153.0508 892.3125 C 2157.3133 873.675 2147.5117 853.68789 2129.7617 846.46289 C 2107.5742 841.10039 2106.6117 814.46172 2095.0742 798.63672 C 2106.8617 773.76172 2114.6875 746.75039 2113.75 718.96289 C 2111.5375 707.52539 2122.9246 700.92422 2132.3496 698.51172 C 2160.1871 691.26172 2187.775 703.16289 2213.4375 712.83789 C 2223.9625 717.81289 2237.4133 723.03789 2241.5508 734.96289 C 2244.4633 751.76289 2231.3133 765.02461 2226.3008 780.03711 C 2215.1133 803.89961 2208.8746 834.53789 2227.0996 856.65039 C 2239.4871 876.56289 2264.0875 877.41289 2283.5625 885.15039 C 2313.1875 928.87539 2373.5621 930.89961 2420.2246 920.34961 C 2404.6746 913.87461 2390.0871 905.08711 2377.5371 893.84961 C 2391.1746 888.36211 2403.6367 880.37539 2414.9492 871.02539 C 2373.1617 856.57539 2360.5504 804.28789 2371.8379 765.58789 C 2384.0004 735.63789 2382.6383 701.58828 2369.4258 672.30078 C 2380.5258 653.16328 2408.8758 640.575 2403.6133 613.4375 C 2370.1633 616.775 2342.8246 592.00039 2323.7871 567.46289 C 2290.8996 513.56289 2217.3254 509.1 2162.3379 524.8125 C 2112.0129 541.2125 2067.1754 586.82422 2065.4004 641.63672 C 2063.8254 661.09922 2065.2996 689.55078 2043.9121 698.86328 C 2051.9121 681.17578 2051.5125 661.33828 2038.125 646.48828 C 2080.6125 620.06328 2068.7375 547.23828 2028.75 525.67578 C 2026.125 546.92578 2019.6883 514.76172 2007.3633 515.19922 C 2002.0008 514.12422 1986.4504 507.7 1990.1504 516.625 C 2000.3754 545.7125 1981.9508 571.92461 1963.3008 592.03711 C 1932.5383 628.22461 1929.9246 690.73789 1969.5371 721.71289 C 1982.5496 754.31289 1966.9492 789.23789 1952.4492 818.71289 C 1895.3742 882.11289 1843.2242 951.97462 1812.4492 1032.2246 C 1778.2492 1114.4746 1769.4375 1213.0367 1812.5371 1293.6992 C 1840.4246 1345.0617 1885.0117 1385.625 1935.0742 1414.9375 C 1990.1117 1444.3875 2031.2492 1494.35 2057.4492 1550.3125 C 2078.4742 1602.45 2090.1383 1659.1742 2083.6758 1715.5117 C 2080.4383 1692.5367 2089.7496 1646.1117 2051.7246 1645.0742 C 2068.2621 1612.8992 2057.7504 1569.7875 2027.4004 1549.8125 C 2011.2879 1537.375 1989.8125 1537.175 1970.5625 1540.0625 C 1969.5 1543.5625 1971.9371 1546.7883 1973.1621 1549.9258 C 1972.5746 1559.0633 1965.9496 1545.825 1960.7871 1549.9375 C 1945.5746 1547.5375 1933.3254 1558.5383 1923.6504 1568.6758 C 1958.0379 1590.9883 1943.2633 1637.7742 1936.9258 1670.6992 C 1926.3883 1716.0117 1951.5258 1779.9992 2004.0508 1782.0742 C 2026.4383 1775.4742 2042.8629 1801.675 2042.9629 1821.1875 C 2012.1004 1858.55 1960.7871 1884.5254 1911.7246 1873.2754 C 1851.3371 1858.6129 1811.9742 1805.0008 1784.9492 1752.5508 C 1748.3242 1683.6258 1717.5383 1610.5742 1667.3633 1549.8867 C 1614.7008 1478.5367 1535.8129 1429.5496 1493.9004 1349.8496 C 1447.1254 1269.8246 1419.9746 1180.6633 1388.4746 1094.0508 C 1383.3121 1074.0383 1384.7375 1052.9875 1380.9375 1032.6875 C 1268.9 1032.5375 1156.859 1032.4508 1044.8184 1032.4492 C 988.79802 1032.4492 932.77784 1032.469 876.75781 1032.5137 C 1044.8178 1032.3784 1212.8812 1032.4625 1380.9375 1032.6875 C 1379.25 1012.9625 1373.1742 989.98828 1374.5742 972.86328 C 1377.9617 991.83828 1377.8371 1013.4258 1385.2871 1032.3633 C 1396.2996 1063.8508 1422.9133 1086.7879 1448.8008 1106.2754 C 1440.1508 1082.4754 1436.3371 1057.3996 1433.5996 1032.3496 C 1431.3996 976.18712 1453.2621 922.82578 1478.0996 873.67578 C 1477.5871 892.31328 1478.775 912.9 1493.375 926.625 C 1513.0625 946.8625 1540.9254 955.40039 1563.9004 971.02539 C 1556.4004 944.43789 1545.8867 916.09961 1554.7617 888.47461 C 1566.1867 851.03711 1578.2133 812.96211 1576.6133 773.28711 C 1599.0133 817.56211 1653.4754 824.475 1697.8379 824.75 C 1655.4004 788.4875 1620.5629 733.36211 1630.4004 675.34961 C 1631.7004 643.98711 1633.0129 612.28711 1627.5254 581.22461 C 1651.5504 617.13711 1702.0371 612.2875 1736.5371 596.25 C 1700.4996 581.125 1669.6508 552.78711 1654.6133 516.34961 C 1648.3508 495.29961 1647.2492 472.05039 1633.6992 453.83789 C 1682.6492 459.02539 1724.1617 423.55 1752.7617 387.8125 C 1713.7367 389.5125 1672.5758 397.8 1634.9883 383.75 C 1606.7633 374.025 1600.6617 342.46328 1582.6367 322.36328 C 1627.5117 313.61328 1662.9758 276.5125 1676.1133 233.625 C 1622.9258 247.9625 1564.9871 256.58789 1511.6621 238.33789 C 1455.8871 216.12539 1401.7746 189.46211 1344.4121 171.47461 C 1342.9621 129.44961 1320.2742 90.649609 1293.7617 60.162109 C 1271.9617 92.199609 1253.3371 129.33711 1230.7871 160.72461 C 1228.1621 125.76211 1203.8883 93.025781 1178.1133 68.425781 C 1173.7133 107.06328 1177.3504 149.625 1156.8379 184.3125 C 1141.3254 194.4375 1126.3379 205.56289 1112.2129 217.33789 C 815.37539 143.88789 517.45039 74.0125 220.71289 0 L 214.03711 0 z M 2188.5254 1032.6367 C 2184.0254 1032.6492 2179.8375 1032.7617 2175.4375 1032.8867 C 2173.275 1046.7742 2184.1379 1041.0117 2188.5254 1032.6367 z M 1180.8516 294.89648 C 1197.1266 294.82004 1211.5398 313.22031 1204.3125 329.125 C 1199.35 346.35 1174.8996 351.55039 1162.7871 338.58789 C 1148.1996 325.86289 1155.6242 297.21211 1175.7617 295.53711 C 1177.4633 295.11055 1179.1679 294.90439 1180.8516 294.89648 z M 1153.1758 579.44922 C 1141.1133 648.47422 1077.0754 709.70039 1007.7129 727.58789 C 1016.4754 713.00039 1035.8621 709.03789 1043.6621 693.71289 C 1053.0871 678.62539 1049.3879 658.61289 1038.8379 645.08789 C 1062.4504 629.45039 1078.8633 605.50078 1090.2383 579.98828 C 1110.8008 585.07578 1132.9633 587.73672 1153.1758 579.44922 z M 1281.1719 1549.9766 C 1388.4442 1549.8957 1495.7228 1550.1021 1602.998 1549.9941 C 1495.723 1550.1022 1388.4438 1549.896 1281.1719 1549.9766 z "
     transform="scale(0.8,0.8)"
     id="path3362" />
</svg>
